<svg width="56" height="56" viewBox="0 0 56 56" fill="none" xmlns="http://www.w3.org/2000/svg">
<path d="M2.18842 55.9999C1.63083 55.9999 1.08199 55.7868 0.665267 55.3829C0.0259718 54.7632 -0.173856 53.8179 0.159847 52.9924L5.12677 40.7062C1.76809 36.3401 0.000378108 31.2183 0.000378108 25.8125C0.000378108 18.8808 2.93775 12.375 8.2713 7.49349C13.5509 2.6612 20.5576 0 28.0003 0C35.4431 0 42.4498 2.6612 47.7295 7.49349C53.063 12.375 56.0003 18.8808 56.0003 25.8125C56.0003 30.7834 54.4646 35.61 51.5593 39.7703C50.8678 40.7608 49.5037 41.0032 48.5135 40.3114C47.5229 39.6197 47.2807 38.256 47.9724 37.2655C50.3622 33.8434 51.6253 29.8829 51.6253 25.8125C51.6253 13.9918 41.0272 4.37499 28.0003 4.37499C14.9735 4.37499 4.37537 13.9918 4.37537 25.8125C4.37537 30.6012 6.0791 35.1312 9.30238 38.9126C9.8312 39.5329 9.97109 40.3958 9.66561 41.1515L6.23496 49.6378L16.2258 45.2337C16.7797 44.9896 17.4099 44.9857 17.9666 45.2233C21.1187 46.5681 24.4945 47.2499 28.0003 47.2499C32.0355 47.2499 36.0174 46.3107 39.5159 44.5339C40.5931 43.9869 41.9097 44.4166 42.4568 45.4937C43.0039 46.5709 42.5742 47.8876 41.4971 48.4347C37.3877 50.5217 32.7206 51.6249 28.0003 51.6249C24.2292 51.6249 20.5809 50.9478 17.142 49.611L3.07031 55.8141C2.78659 55.9391 2.48625 55.9999 2.18842 55.9999Z" />
</svg>
