<svg width="40" height="40" viewBox="0 0 40 40" fill="none" xmlns="http://www.w3.org/2000/svg">
<path d="M11.287 8.46895L11.4142 8.58579L20.001 17.173L28.5896 8.58579L28.7168 8.46895C29.5026 7.8069 30.6781 7.84585 31.418 8.58579C32.199 9.36683 32.199 10.6332 31.418 11.4142L22.83 20.001L31.418 28.5896C32.199 29.3706 32.199 30.6369 31.418 31.418C30.6781 32.1579 29.5026 32.1969 28.7168 31.5348L28.5896 31.418L20.001 22.83L11.4142 31.418L11.287 31.5348C10.5012 32.1969 9.32573 32.1579 8.58579 31.418C7.80474 30.6369 7.80474 29.3706 8.58579 28.5896L17.173 20.001L8.58579 11.4142C7.80474 10.6332 7.80474 9.36683 8.58579 8.58579C9.32573 7.84585 10.5012 7.8069 11.287 8.46895Z" fill="#0C1024"/>
</svg>
