<svg width="40" height="40" viewBox="0 0 40 40" fill="none" xmlns="http://www.w3.org/2000/svg">
<path fill-rule="evenodd" clip-rule="evenodd" d="M29.8906 9H10.1094C8.94627 9 8 9.94627 8 11.1094V24.7969C8 25.96 8.94627 26.9062 10.1094 26.9062H16.92L16.4044 30H15.5C15.1117 30 14.7969 30.3148 14.7969 30.7031C14.7969 31.0914 15.1117 31.4062 15.5 31.4062H24.5C24.8883 31.4062 25.2031 31.0914 25.2031 30.7031C25.2031 30.3148 24.8883 30 24.5 30H23.5956L23.08 26.9062H29.8906C31.0537 26.9062 32 25.96 32 24.7969V11.1094C32 9.94627 31.0537 9 29.8906 9ZM17.83 30L18.3456 26.9062H21.6544L22.17 30H17.83ZM30.5938 24.7969C30.5938 25.1846 30.2783 25.5 29.8906 25.5H10.1094C9.72167 25.5 9.40625 25.1846 9.40625 24.7969V11.1094C9.40625 10.7217 9.72167 10.4062 10.1094 10.4062H19.2969V11.2031C19.2969 11.5914 19.6117 11.9062 20 11.9062C20.3883 11.9062 20.7031 11.5914 20.7031 11.2031V10.4062H29.8906C30.2783 10.4062 30.5938 10.7217 30.5938 11.1094V24.7969ZM17.75 18C17.3617 18 17.0469 18.3148 17.0469 18.7031V21H15.4531V16.4531C15.4531 16.0648 15.1383 15.75 14.75 15.75C14.3617 15.75 14.0469 16.0648 14.0469 16.4531V21H12.4531V14.2031C12.4531 13.8148 12.1383 13.5 11.75 13.5C11.3617 13.5 11.0469 13.8148 11.0469 14.2031V21.7031C11.0469 22.0914 11.3617 22.4062 11.75 22.4062H17.75C18.1383 22.4062 18.4531 22.0914 18.4531 21.7031V18.7031C18.4531 18.3148 18.1383 18 17.75 18ZM20.7969 17.9531C20.7969 15.7044 22.6263 13.875 24.875 13.875C27.1237 13.875 28.9531 15.7044 28.9531 17.9531C28.9531 20.2018 27.1237 22.0312 24.875 22.0312C23.7674 22.0312 22.7618 21.5872 22.0261 20.8681L22.0214 20.8639C21.9908 20.8371 21.9908 20.8371 21.96 20.802C21.2409 20.0663 20.7969 19.0606 20.7969 17.9531ZM25.5781 17.25H27.4523C27.2041 16.341 26.4871 15.624 25.5781 15.3758V17.25ZM24.1719 17.6619V15.3758C22.4944 15.834 21.6867 17.7618 22.556 19.2777L24.1719 17.6619ZM25.1662 18.6562L23.5504 20.2721C25.0642 21.1402 26.9934 20.3362 27.4523 18.6562H25.1662Z" fill="black"/>
</svg>
