<svg width="33" height="48" viewBox="0 0 33 48" fill="none" xmlns="http://www.w3.org/2000/svg">
<path d="M31.3114 29.2619L29.4364 27.8565C28.4052 27.107 28.5927 26.3575 28.7802 25.9827L29.6239 25.3269C30.9363 24.2963 31.7801 22.7972 31.7801 21.1108C31.7801 19.4244 31.0301 17.9253 29.6239 16.8947L8.43719 1.06098C6.8435 -0.156998 4.68733 -0.34438 2.90615 0.592527C1.12496 1.52943 0 3.30956 0 5.27706V36.9445C0 38.912 1.12496 40.7858 2.90615 41.629C3.65612 42.0038 4.49984 42.1912 5.24981 42.1912C6.37477 42.1912 7.49973 41.8164 8.43719 41.1606C8.43719 41.1606 9.56216 40.5984 9.56216 42.1912V43.7839C9.56216 45.3767 10.4059 46.782 11.8121 47.5315C12.3746 47.8126 13.0308 48 13.687 48C14.5307 48 15.4682 47.7189 16.1244 47.1568L31.2176 35.9139C32.2488 35.1644 32.905 33.9464 32.905 32.541C32.9988 31.3231 32.4363 30.1051 31.3114 29.2619ZM12.3746 32.0726V21.2982C12.3746 20.8297 12.6558 20.3613 13.1245 20.0802C13.312 19.9865 13.4995 19.8928 13.687 19.8928C13.9682 19.8928 14.2495 19.9865 14.437 20.1739L21.8429 25.7016C22.9679 26.5448 22.0305 27.4817 21.7492 27.6691L14.6245 33.0095C12.4683 34.7896 12.3746 32.0726 12.3746 32.0726ZM4.2186 39.1931C3.37488 38.7246 2.90615 37.9751 2.90615 37.0382V5.27706C2.90615 4.34015 3.37488 3.49694 4.2186 3.12218C4.59358 2.93479 4.96858 2.8411 5.34357 2.8411C5.8123 2.8411 6.37475 3.02849 6.84349 3.30956L28.0302 19.1433C28.6865 19.6117 28.9677 20.3613 28.9677 21.1108C28.9677 21.8603 28.5927 22.6098 28.0302 23.0783L26.9053 23.9215C25.7803 24.8584 24.3741 24.1089 23.9054 23.7341L23.7179 23.5467L16.2181 18.019C14.9057 17.0821 13.312 16.8947 11.9058 17.6442C10.4996 18.3938 9.65588 19.7991 9.65588 21.3919V34.0401C9.65588 36.8508 8.34344 37.7877 8.34344 37.7877L6.84349 38.912C6.09352 39.4742 5.06231 39.5678 4.2186 39.1931ZM29.6239 33.6653L14.5307 44.9082C14.1557 45.1893 13.5933 45.283 13.1245 45.0019C12.6558 44.8145 12.3746 44.3461 12.3746 43.7839V40.13C12.3746 39.8489 12.4683 38.1625 13.9682 37.0382L23.9054 29.6366C24.1866 29.4493 25.5928 28.5123 27.1865 29.6366L29.6239 31.5104C29.9989 31.7915 30.1864 32.1663 30.1864 32.541C30.1864 33.0095 29.9989 33.3843 29.6239 33.6653Z" fill="#EFCA47"/>
</svg>
