<svg width="40" height="40" viewBox="0 0 40 40" fill="none" xmlns="http://www.w3.org/2000/svg">
<path fill-rule="evenodd" clip-rule="evenodd" d="M29.6584 13.6575C30.3059 13.6575 30.9304 13.9291 31.3719 14.4025C31.819 14.8819 32.0399 15.5073 31.9941 16.1636C31.9128 17.3259 30.9735 18.2577 29.8092 18.3311C29.5409 18.3478 29.2736 18.3186 29.0189 18.2465V28.4308C29.0189 29.2453 28.3556 29.908 27.5404 29.908H21.0098C20.6207 29.908 20.2662 29.757 20.002 29.5107C19.7373 29.7593 19.3813 29.9117 18.9902 29.9117H12.4596C11.6444 29.9117 10.9811 29.2491 10.9811 28.4345V27.1662C10.7752 27.2244 10.5607 27.2542 10.3417 27.2542C9.69417 27.2542 9.06961 26.9826 8.6281 26.5092C8.18106 26.0298 7.96009 25.4044 8.00593 24.7481C8.08717 23.5858 9.02644 22.6539 10.1908 22.5806C10.459 22.5638 10.7264 22.5931 10.9811 22.6651V12.481C10.9811 11.6664 11.6443 11.0037 12.4596 11.0037H18.9902C19.3793 11.0037 19.7337 11.1547 19.998 11.401C20.2627 11.1525 20.6187 11 21.0098 11H27.5404C28.3556 11 29.0189 11.6627 29.0189 12.4772V13.7455C29.2248 13.6873 29.4394 13.6575 29.6584 13.6575ZM18.9902 28.9741C19.2885 28.9741 19.5312 28.732 19.5312 28.4344H19.5313V20.9264H17.161C16.9499 20.9264 16.7609 20.7847 16.7065 20.5728C16.6678 20.4221 16.7139 20.2638 16.8125 20.1435C17.0373 19.8691 17.1486 19.5224 17.1261 19.1653C17.0821 18.4691 16.5235 17.9075 15.8267 17.8589C15.431 17.8313 15.0545 17.964 14.7666 18.2326C14.4791 18.5007 14.3208 18.8645 14.3208 19.257C14.3208 19.5856 14.437 19.905 14.6479 20.1563L14.6481 20.1565C14.9134 20.4311 14.7397 20.8909 14.359 20.9209L14.2888 20.9264H11.9186V23.4071C11.9186 23.6232 11.7699 23.8169 11.5477 23.8657C11.4141 23.8951 11.2748 23.8589 11.164 23.7788C10.8976 23.5861 10.5819 23.4956 10.2497 23.5162C9.55233 23.5602 8.98974 24.1178 8.94113 24.8135C8.9123 25.2259 9.05865 25.6175 9.35203 25.9093C9.5962 26.1522 9.92498 26.2977 10.269 26.3148C10.5969 26.3311 10.9111 26.2369 11.1724 26.045C11.2544 25.9849 11.3518 25.9542 11.4499 25.9542C11.5342 25.9542 11.6189 25.9768 11.6946 26.0231C11.8374 26.1103 11.9186 26.2713 11.9186 26.4386V28.4344C11.9186 28.732 12.1613 28.9741 12.4596 28.9741H18.9902ZM27.5404 28.9704C27.8387 28.9704 28.0814 28.7283 28.0814 28.4307H28.0814V20.9227H26.4989C26.5763 21.1573 26.6166 21.4044 26.6166 21.6546C26.6166 22.3004 26.3455 22.9237 25.8728 23.3646C25.4342 23.7737 24.8732 23.9939 24.2778 23.9939C24.2215 23.9939 24.1649 23.9919 24.1081 23.9879C22.9445 23.9069 22.0117 22.9685 21.9383 21.8054C21.9192 21.5023 21.9581 21.2035 22.0505 20.9227H20.4687V28.4307C20.4687 28.7283 20.7115 28.9704 21.0098 28.9704H27.5404ZM29.7503 17.3954C30.4477 17.3515 31.0103 16.7939 31.0589 16.0982C31.0877 15.6858 30.9414 15.2941 30.648 15.0023C30.4038 14.7595 30.0751 14.6139 29.7311 14.5968C29.4032 14.5805 29.089 14.6747 28.8276 14.8666C28.655 14.9933 28.4138 14.9894 28.2432 14.8433C28.1375 14.7528 28.0814 14.617 28.0814 14.478V12.4772C28.0814 12.1796 27.8387 11.9375 27.5404 11.9375H21.0098C20.7115 11.9375 20.4687 12.1796 20.4687 12.4772V12.4784V12.4809V12.4811V12.4813V14.3935C20.4687 14.6627 20.2418 14.8789 19.9688 14.8612C19.7196 14.8451 19.5312 14.6271 19.5312 14.3774V12.4813V12.4811V12.4809C19.5312 12.1833 19.2885 11.9412 18.9902 11.9412H12.4596C12.1613 11.9412 11.9186 12.1833 11.9186 12.4809V19.9888H13.5011C13.4237 19.7542 13.3833 19.5071 13.3833 19.2569C13.3833 18.6111 13.6544 17.9878 14.1271 17.5469C14.6072 17.0991 15.2339 16.8779 15.8919 16.9236C17.0554 17.0047 17.9882 17.9431 18.0616 19.1062C18.0808 19.4093 18.0419 19.7081 17.9494 19.9889H19.5312V18.6315C19.5312 18.3623 19.7581 18.1461 20.0311 18.1638C20.2803 18.1799 20.4687 18.3979 20.4687 18.6476V19.9852H22.839L22.841 19.9855C23.1939 20.0291 23.3883 20.4188 23.2133 20.7283L23.1981 20.7553C22.9661 21.0317 22.851 21.3837 22.8739 21.7464C22.9179 22.4425 23.4765 23.0042 24.1733 23.0527C24.5687 23.0804 24.9455 22.9476 25.2334 22.6791C25.5763 22.3592 25.7354 21.9031 25.6612 21.4247C25.6229 21.1778 25.5111 20.948 25.3521 20.7553L25.3519 20.7551C25.1383 20.4474 25.3341 20.0231 25.7069 19.9857L25.7111 19.9853H28.0814V17.5046C28.0814 17.2885 28.23 17.0948 28.4522 17.0459C28.5858 17.0166 28.7252 17.0527 28.8361 17.1329C29.1025 17.3256 29.418 17.4163 29.7503 17.3954ZM19.5592 16.6624C19.6256 16.8464 19.8041 16.9725 19.9999 16.9725C20.2225 16.9725 20.4179 16.8098 20.4602 16.5916C20.4966 16.4037 20.4099 16.2065 20.2472 16.1059C20.0741 15.9988 19.8442 16.0167 19.6908 16.1514C19.5477 16.277 19.4945 16.4833 19.5592 16.6624Z" fill="black"/>
</svg>
