<svg width="20" height="20" viewBox="0 0 20 20" fill="none" xmlns="http://www.w3.org/2000/svg">
<path d="M8.79969 0.400391C13.4389 0.400391 17.1997 4.1612 17.1997 8.80039C17.1997 10.8319 16.4785 12.695 15.2782 14.1476L19.285 18.1543C19.5974 18.4667 19.5974 18.9733 19.285 19.2857C18.9726 19.5981 18.466 19.5981 18.1536 19.2857L14.1469 15.2789C12.6943 16.4792 10.8312 17.2004 8.79969 17.2004C4.1605 17.2004 0.399689 13.4396 0.399689 8.80039C0.399689 4.1612 4.1605 0.400391 8.79969 0.400391ZM8.79969 2.00039C5.04415 2.00039 1.99969 5.04485 1.99969 8.80039C1.99969 12.5559 5.04415 15.6004 8.79969 15.6004C12.5552 15.6004 15.5997 12.5559 15.5997 8.80039C15.5997 5.04485 12.5552 2.00039 8.79969 2.00039Z" />
</svg>
