<svg width="40" height="40" viewBox="0 0 40 40" fill="none" xmlns="http://www.w3.org/2000/svg">
<path d="M32 12.3649C31.1193 12.7687 30.1667 13.0375 29.1736 13.1581C30.191 12.5328 30.9685 11.543 31.339 10.3646C30.3874 10.9414 29.3325 11.3648 28.2129 11.5914C27.313 10.6098 26.0334 10 24.6182 10C21.8991 10 19.6963 12.2588 19.6963 15.0482C19.6963 15.4416 19.7388 15.8258 19.8228 16.1977C15.7321 15.9855 12.1039 13.9759 9.6764 10.9188C9.25426 11.6635 9.0113 12.5339 9.0113 13.4578C9.0113 15.2068 9.87785 16.7549 11.2009 17.6593C10.3941 17.6356 9.6359 17.4049 8.9698 17.0299V17.0917C8.9698 19.5391 10.6664 21.5816 12.9209 22.0431C12.5078 22.1584 12.0725 22.2202 11.6231 22.2202C11.3042 22.2202 10.9995 22.1873 10.6948 22.1285C11.3234 24.134 13.1416 25.5956 15.2927 25.6399C13.6052 26.9944 11.4864 27.8019 9.17631 27.8019C8.77847 27.8019 8.38873 27.7793 8 27.7309C10.1846 29.1688 12.771 30 15.5499 30C24.605 30 29.5583 22.3026 29.5583 15.6301C29.5583 15.4097 29.5542 15.1924 29.5441 14.9761C30.5048 14.2695 31.34 13.3805 32 12.3649Z" />
</svg>
