<svg width="40" height="40" viewBox="0 0 40 40" fill="none" xmlns="http://www.w3.org/2000/svg">
<path d="M19.515 13.2172C18.9424 12.8849 18.2581 12.8838 17.6844 13.2141C17.1091 13.5455 16.7656 14.1404 16.7656 14.8053V19.476C16.7656 20.141 17.1091 20.7357 17.6846 21.0671C17.9705 21.2318 18.2838 21.3141 18.5972 21.3141C18.9125 21.3141 19.2278 21.2308 19.515 21.064L23.5394 18.7289C24.1116 18.3969 24.4531 17.8031 24.4531 17.1406C24.4531 16.4781 24.1116 15.8843 23.5394 15.5524L19.515 13.2172ZM18.6406 19.4036V14.8776L22.5406 17.1406L18.6406 19.4036ZM30.125 17.7969V11.75C30.125 10.7162 29.2838 9.875 28.25 9.875H11.75C10.7162 9.875 9.875 10.7162 9.875 11.75V22.5312C9.875 23.5651 10.7162 24.4062 11.75 24.4062H28.25C29.2838 24.4062 30.125 23.5651 30.125 22.5312C30.125 22.0134 30.5447 21.5938 31.0625 21.5938C31.5803 21.5938 32 22.0134 32 22.5312C32 24.5991 30.3178 26.2812 28.25 26.2812H11.75C9.68219 26.2812 8 24.5991 8 22.5312V11.75C8 9.68219 9.68219 8 11.75 8H28.25C30.3178 8 32 9.68219 32 11.75V17.7969C32 18.3147 31.5803 18.7344 31.0625 18.7344C30.5447 18.7344 30.125 18.3147 30.125 17.7969ZM32 30.0781C32 30.5959 31.5803 31.0156 31.0625 31.0156H19.0156C18.4978 31.0156 18.0781 30.5959 18.0781 30.0781C18.0781 29.5603 18.4978 29.1406 19.0156 29.1406H31.0625C31.5803 29.1406 32 29.5603 32 30.0781ZM16.2031 30.125C16.2031 31.1605 15.3636 32 14.3281 32C13.6149 32 12.9949 31.6017 12.6778 31.0156H8.9375C8.41968 31.0156 8 30.5959 8 30.0781C8 29.5603 8.41968 29.1406 8.9375 29.1406H12.7324C13.0627 28.6063 13.6537 28.25 14.3281 28.25C15.3636 28.25 16.2031 29.0895 16.2031 30.125Z" fill="black"/>
</svg>
