<svg width="40" height="40" viewBox="0 0 40 40" fill="none" xmlns="http://www.w3.org/2000/svg">
<path d="M17.5455 23.0877V15.9123L23.8182 19.5001L17.5455 23.0877ZM31.4985 13.6546C31.2225 12.6097 30.4092 11.7868 29.3766 11.5075C27.505 11 20 11 20 11C20 11 12.495 11 10.6234 11.5075C9.59082 11.7868 8.77755 12.6097 8.50155 13.6546C8 15.5485 8 19.5 8 19.5C8 19.5 8 23.4514 8.50155 25.3454C8.77755 26.3903 9.59082 27.2132 10.6234 27.4926C12.495 28 20 28 20 28C20 28 27.505 28 29.3766 27.4926C30.4092 27.2132 31.2225 26.3903 31.4985 25.3454C32 23.4514 32 19.5 32 19.5C32 19.5 32 15.5485 31.4985 13.6546Z"/>
</svg>
